# xmcd CD database file
#
# Track frame offsets:
#	150
#	7057
#	26567
#	58753
#	74370
#	89789
#	109673
#	132898
#	150284
#	164254
#	178678
#
# Disc length: 2697 seconds
#
# Revision: 0
# Processed by: cddbd v1.5.1PL2 Copyright (c) Steve Scherf et al.
# Submitted via: CDex 1.51
#
DISCID=8f0a870b
DTITLE=Renee Austin  - Dancing With Mr Blue
DYEAR=1997
DGENRE=Blues
TTITLE0=Little Bit A Texas 
TTITLE1=Calling It Quits
TTITLE2=The Accused
TTITLE3=One Man
TTITLE4=Lonley Road
TTITLE5=Pillow
TTITLE6=It's All A Game
TTITLE7=Catfish Woman
TTITLE8=Heartless World
TTITLE9=Swing
TTITLE10=Dancing With Mr Blue
EXTD=YEAR: 1997
EXTT0=
EXTT1=
EXTT2=
EXTT3=
EXTT4=
EXTT5=
EXTT6=
EXTT7=
EXTT8=
EXTT9=
EXTT10=
PLAYORDER=
